<svg id="Layer_1" data-name="Layer 1" xmlns="http://www.w3.org/2000/svg" viewBox="0 0 190.82 601.56"><title>logo</title><path d="M457.21,284.44l-.65-1.66c-5.79-25-25.64-39.68-41.6-57.25-8.57-9.44-17-19-25.29-28.72a19.61,19.61,0,0,1-3.12-5.24,13.36,13.36,0,0,1-1.71-2.59,39.83,39.83,0,0,1-2.67-5.47c-1.33-3.29-2.55-7.34-2.06-11a6.13,6.13,0,0,1-.14-1.19c0-10.42,1.06-21.42,4.57-31.14,6.95-19.24,21.66-33.13,36.69-46.4,3-2.67,6-5.42,9-8.14l-2-2.16c-7.22,5.77-14.38,11.61-21.67,17.29s-14.61,11.09-22.36,17l0,0a6.8,6.8,0,0,1-1.18.76c-.34.27-.68.55-1,.79a36,36,0,0,1-2.78,2.48,18.17,18.17,0,0,1-2,1.56l-.43.45a12.29,12.29,0,0,0-2.26,2.35l0,0,0,0c-8.55,10.8-18.59,20.82-25.16,32.74-16.5,30-12.46,57.8,10.68,83.89,15.71,17.72,32.12,34.82,47.81,52.55a37.63,37.63,0,0,1,8.93,33.57c-1.33,6.39-5.18,12.26-8.69,20.18,10.48-9.35,19.52-17.48,28.65-25.52,9.9-8.73,16.34-19.35,18.7-32.46a7.89,7.89,0,0,1,2.22-3.51,21.57,21.57,0,0,0-.44-3.06Z" transform="translate(-300.59 -83.44)"/><path d="M388.44,684.15c.91-3.21,1.78-6.43,2.74-9.63,6.11-20.28.65-38.59-10.47-55.41-16-24.19-32.82-47.84-49-71.94C319.59,529.05,307,511,302.79,489c-4.23-22.38-3-44.8,9.38-64.17C334.78,389.4,359,355,382.64,320.33c5.64-8.26,11.94-16.07,17.94-24.09l1.88,1.09c-1.43,2.43-2.67,5-4.3,7.27-13.29,18.61-27.31,36.74-39.85,55.85-15.71,24-29.48,48.76-25.73,79.41,2.65,21.71,12.75,39.93,24.63,57.38,16.93,24.87,34.75,49.12,51.56,74.07,9.53,14.16,18.06,29.05,16.83,47.27-.86,12.77-4.18,24.53-12.09,34.9-6.61,8.67-12.78,17.69-19.21,26.51-1.29,1.78-2.87,3.35-4.32,5Z" transform="translate(-300.59 -83.44)"/><path d="M485.37,327.93c-7.89-10.67-14.81-22.05-22.15-33.12-.28-.53-.55-1.07-.82-1.61L462,293c-1,1.38-2.72,3-2.4,3.95,3.33,9.59-.41,17.55-6.35,24.23-6.52,7.31-14.11,13.67-21.35,20.33-17.8,16.39-37.31,31.27-53.14,49.36-31,35.42-33,65.09-2,99.26,23.78,26.21,48.69,51.4,73.13,77,.57.6,1.63.73,2.46,1.08-.57-3.08-2.26-4.89-3.95-6.7-12.33-13.24-25-26.18-36.93-39.78-24.16-27.51-25.27-57.54-.43-88.38,15-18.64,34.9-33.33,52.33-50.07,8-7.7,16.31-15.4,22.85-24.3C493.42,349.12,493.13,338.42,485.37,327.93Z" transform="translate(-300.59 -83.44)"/></svg>