<?xml version="1.0" encoding="UTF-8"?>
<!-- Generator: Adobe Illustrator 21.1.0, SVG Export Plug-In . SVG Version: 6.00 Build 0)  -->
<svg version="1.1" id="Layer_1" xmlns="http://www.w3.org/2000/svg" xmlns:xlink="http://www.w3.org/1999/xlink" x="0px" y="0px" viewBox="0 0 1920 1080" style="enable-background:new 0 0 1920 1080;" xml:space="preserve">
<path d="M1918.6,20.6v-7.5c-8.6,5.6-10.7,5.1-21.5,3.4c-1.2-0.2-2.2-0.3-3.3,0.3c-0.6,0.4-1.3,0.3-2,0.2c-0.7-0.1-1.4-0.2-2,0  c-1.4,0.3-2.9-0.7-4.3,0l-0.3-0.1c-0.6-0.3-1.2-0.3-1.8-0.2c-2.1,0.3-4.2,0.3-6.3-0.5c-1.6-0.6-3.4-0.3-5,0.4  c-1.2,0.5-2.4,1.2-3.9,0.5l-1.5,0l-1.3,0c-1.9-0.8-4-0.8-6-1.3c-0.4-0.1-0.9-0.2-0.9,0.3c0,0.7-0.5,0.8-1,1  c-1.2,0.5-2.5,0.6-3.8,0.4c-1.7-0.3-3.4-0.6-5.2-0.2l-1.4-0.1c-1.7-0.4-3.4-0.1-5.1,0.3c-2.3,0.7-4.7,1-6.4,2.7l-1.2,0.3  c-1.8-0.3-3.6-0.4-5.3,0.1h-5c-1.4-0.5-2.7-1.3-4.1-2l-0.3-0.5c0-0.8-0.5-1-1.2-0.5c-0.5,0.3-0.9,0.5-1.5,0.3l-0.8,0.1  c-1.3,0.9-2.9,0.8-4.4,1.1c-2.4,0.4-4.8-0.4-7.2,0.4c-2,0.7-4.3,0.2-6.4,0.9c-0.2,0.1-0.4,0.1-0.7,0.2h-16.5  c-0.5-0.1-1.1-0.2-1.7-0.3l-1.2-0.6c-1.2-1.1-2.6-0.8-3.9-0.4c-1,0.3-1.8,0.2-2.7-0.2c-1.6-0.7-3.3-1.1-5.1-1  c-2.1,0.1-4.2-0.3-6.2-0.5c-3-0.3-6.1-0.9-8.9,0.6l-0.7,0.6l0.1,0.6l-0.9-0.2c-0.8-0.5-1.6-0.7-2.6-0.7c-2.8,0-5.6,0.3-8.3-0.8  c-0.6-0.2-1.7-0.5-2.1-0.3c-1.4,0.6-2.6,0.3-3.8,0c-1.3-0.3-2.4,0-3.6,0.7c-1.4,0.8-3.2,1-4.9,0.7c-1-0.2-2.1-0.7-2.9-1.6  c-0.6-0.7-1.8-1.3-3.2-1.1c-1,0.1-2,0.2-2.9-0.7c-0.8-0.8-1-2-2.3-2.5c-0.9-0.3-1.9-0.5-2.7-1.3c0.2,1.5-1.9,0.8-2,1.9l-0.5-0.1  c-0.9-0.7-1.9-0.3-3.1-0.5l1.1,0.5l0.8,0.6c0,0.4-0.5,0.2-0.8,0.3l-0.8,0.3c-0.3,0.7-0.9,0.6-1.5,0.6l-1.4,0.2  c-0.9,0.7-2.4,0-3.2,0.9l-0.5-0.1c-1.6-0.5-3.1-0.9-5-0.5c-1.9,0.4-4,0.9-6,0.2l-0.8,0.2l-0.7,0.2c-0.9-1-2.1-1.1-3.4-1.2l-0.2-0.2  l-0.8-0.4c-1.2,0.1-2.5-0.4-3.5,0.6l-1.3-0.2l-1.3-0.1l0.8,0.6l0.1,0.3c-1.1,0.3-1.8-1.3-2.9-0.3l0.9,0.7l0.7,0.5  c-0.1,0.5-0.6,0.1-1,0.2l-1,0l0.4,0.8c-1.5,0.6-4.4,0.6-5-0.3c-0.7-1-1.5-0.6-2.4-0.6c-1.2,0-2.4,0.5-3.6,0.3  c-1.7-0.2-3.4-0.1-4.9-0.9l-1.1-0.1c-4.2,0.4-8.3-0.1-12.5-0.3c-1.1-0.1-2.2,0-3.3-0.1c-0.6-0.1-1.8-0.2-1.8-0.1  c-0.7,1.4-2.1,0.7-3.2,0.8c-2.5,0.1-5.1-0.8-7.6,0.1l-1.1-0.2l-1-0.2c-2.4,0.7-4.7,0.2-6.9-0.3c-0.7-0.1-1.3-0.1-2-0.4  c-1.6-0.9-3.4-1.6-5.4-1.7c-2.5-0.1-5.1-0.1-7.6-0.2c-0.6,0-1,0.6-1.7,0.2c-1.1-0.5-2.3-0.4-3.5-0.4c-1.9-0.1-3.7,0.4-5.6,0.2  c-1.8-0.1-3.5-0.7-5.3-0.4l-0.7-0.4c-0.1-1.2-1.2-0.4-1.7-0.6c-0.7-0.3-0.6,0.4-0.8,0.7c-1.3-1-2.9-0.7-4.4-0.7  c-2.8,0.1-5.6-0.1-8.3,0.5c-1.9,0.4-4,0.5-6,0l-1.4,0.1c-1,0.5-2.2,0.6-3.3,0.8c-1.4,0.2-2.7,0.9-4.1,1.1c-1.5,0.2-2.9,0.5-4.4,0.5  c-1.8,0.1-3.5,0.7-5.3,0.7c-2.6-0.1-5.3-0.3-7.9,0.3c-0.6,0.1-1.2,0-1.7-0.2c-0.8-0.4-1.7-0.2-2.5-0.1c-1.3,0.1-2.5,0.4-3.8,0.4  c-3.2,0-6.3-1.1-9.5-0.2l-0.3,0c-2.7,0-5.3,0-8,0.3c-2,0.3-4,0.5-5.9,1.2c-0.9,0.3-2.3-0.1-2.9,0.9l-0.5,0c-2.2,0-4.5,0.1-6.7,0  c-1.3,0-2.5,0.6-3.9,0.1l-1,0.1c-0.3,0.6-0.8,0.3-1.3,0.2c-1.6-0.3-3.3-0.1-4.9-0.4c-0.7-0.1-1.6,0.3-2.4,0.2  c-0.8-0.1-2,0.1-2.4-0.2c-0.9-0.8-1.3,0.3-1.9,0.2l-0.9-0.6l-0.8-0.2c-0.5,0.7-1,0.3-1.4,0l-1.1-0.4c-3.4,0-6.8-0.2-10.2-0.1  c-2,0-4-0.5-6-0.1c-0.9,0.1-1.8,0.2-2.7,0.1c-2.3-0.1-4.6-0.4-7-0.5c-1.8-0.1-3.5,0-5.3-0.2c-1.1-0.1-2.7-0.7-3.8,0.4l-0.8-0.4  c0.3-1.2-1-0.8-1.1-0.7c-1.3,0.8-2.8,0.6-4.2,1.1c-1.5,0.6-2.9,1-4.7,0.3c-1.1-0.5-2.5-0.6-3.9-0.5c-1.7,0.1-3.4-0.1-4.8-0.7  c-1.4-0.6-2.8-1-4.4-0.9c-0.5,0-1-0.5-1.6-0.1c-1.8,1-3.8,0.7-5.6,0.3c-0.8-0.2-1.2-0.8-2.4-0.4c-0.8,0.3-1.7,0-2.7,0.5  c-2,0.9-4.4,1.6-6.6,0.1l-0.5,0.1c0.2,0.6,1.5,0.2,1.5,1l-1,0.4c-0.8,0.9-2.2,0.9-3.1,0.6c-1.9-0.6-3.8-0.5-5.8-0.7  c-0.7-0.1-1.4,0-2.2,0.1c-1.3,0.2-2.7,0.1-3.9,0.6c-0.6,0.2-1.2-0.3-1.9-0.2c-2.1,0.5-4.4,0.4-6.6,0.6c-0.7,0-1.4,0.1-1.7,0.6  c-0.8,1.1-2.3,0.8-3.4,1.2c-14.8,0-28.3-0.1-40.3-0.1c0,0,0,0,0,0c-0.4-0.2-0.8-0.3-0.9,0h-0.2c-0.4-0.5-0.9-0.8-1.4-0.5  c-1,0.7-1.4,0.1-1.9-0.4l-0.9-0.5c-1,0.2-1.9,0-2.9,0.1l-0.6,0.2c-0.3,1.1-1.2,0.5-1.6,0.2c-0.9-0.8-1.9-0.6-3-0.7  c-0.6-0.1-1.1,0.3-1.7,0.1c-1.5-0.5-3.2-0.2-4.4-1.3l-0.7,0.1c-1.5,0.5-2.6-0.4-3.5-1c-0.8-0.6-1.3-1.4-2.6-1.2l0.5,1.2  c-2.2-0.8-2.2-0.8-2.2,0.4c-0.9-0.4-1.8,0.1-2.6-0.2l-0.3,0.2c0.3,0.7-0.6,0.6-0.7,0.5c-0.8-0.4-1.3-0.1-1.9,0.3l-1,0.1  c-1.7,0.3-3.5-0.2-5.2,0.3c-1,0.3-1.9,0.3-2.7-0.3l-1,0.1c-0.4,0.4-1.1,0.8-2,0.5c0.2-0.5,0.8-0.1,0.9-0.5c-0.3-0.5-0.8-0.2-1.2-0.3  c-0.6-0.1-1.2,0.3-1.7-0.1c-0.3-0.3-0.6-0.4-0.8-0.3v-3.4c-8.6,5.6-10.7,5.1-21.5,3.4c-1.2-0.2-2.3-0.3-3.3,0.3  c-0.6,0.4-1.3,0.3-2,0.2c-0.7-0.1-1.4-0.2-2,0c-1.4,0.3-2.9-0.7-4.3,0l-0.3-0.1c-0.6-0.3-1.2-0.3-1.8-0.2c-2.1,0.3-4.2,0.3-6.3-0.5  c-1.6-0.6-3.4-0.3-5,0.4c-1.2,0.5-2.4,1.2-3.9,0.5l-1.5,0l-1.3,0c-1.9-0.8-4-0.8-6-1.3c-0.4-0.1-0.9-0.2-0.9,0.3c0,0.7-0.5,0.8-1,1  c-1.2,0.5-2.5,0.6-3.8,0.4c-1.7-0.3-3.4-0.6-5.2-0.2l-1.4-0.1c-1.7-0.4-3.4-0.1-5.1,0.3c-2.3,0.7-4.7,1-6.4,2.7l-1.2,0.3  c-1.8-0.3-3.6-0.4-5.3,0.1h-5c-1.4-0.5-2.7-1.3-4.1-2l-0.3-0.5c0-0.8-0.5-1-1.2-0.5c-0.5,0.3-0.9,0.5-1.5,0.3L1179,18  c-1.3,0.9-2.9,0.8-4.4,1.1c-2.4,0.4-4.8-0.4-7.2,0.4c-2,0.7-4.3,0.2-6.4,0.9c-0.2,0.1-0.4,0.1-0.7,0.2h-16.5  c-0.5-0.1-1.1-0.2-1.7-0.3l-1.2-0.6c-1.2-1.1-2.6-0.8-3.9-0.4c-1,0.3-1.8,0.2-2.7-0.2c-1.6-0.7-3.3-1.1-5.1-1  c-2.1,0.1-4.2-0.3-6.2-0.5c-3-0.3-6.1-0.9-8.9,0.6l-0.7,0.6l0.1,0.6l-0.9-0.2c-0.8-0.5-1.6-0.7-2.6-0.7c-2.8,0-5.6,0.3-8.3-0.8  c-0.6-0.2-1.7-0.5-2.1-0.3c-1.4,0.6-2.6,0.3-3.8,0c-1.3-0.3-2.4,0-3.6,0.7c-1.4,0.8-3.2,1-4.9,0.7c-1-0.2-2.1-0.7-2.9-1.6  c-0.6-0.7-1.8-1.3-3.2-1.1c-1,0.1-2,0.2-2.9-0.7c-0.8-0.8-1-2-2.3-2.5c-0.9-0.3-1.9-0.5-2.7-1.3c0.2,1.5-1.9,0.8-2,1.9l-0.5-0.1  c-0.9-0.7-1.9-0.3-3.1-0.5l1.1,0.5l0.8,0.6c0,0.4-0.5,0.2-0.8,0.3l-0.8,0.3c-0.3,0.7-0.9,0.6-1.5,0.6l-1.4,0.2  c-0.9,0.7-2.4,0-3.2,0.9l-0.5-0.1c-1.6-0.5-3.1-0.9-5-0.5c-1.9,0.4-4,0.9-6,0.2l-0.8,0.2l-0.7,0.2c-0.9-1-2.1-1.1-3.4-1.2l-0.2-0.2  l-0.8-0.4c-1.2,0.1-2.5-0.4-3.5,0.6l-1.3-0.2l-1.3-0.1l0.8,0.6l0.1,0.3c-1.1,0.3-1.8-1.3-2.9-0.3l0.9,0.7l0.7,0.5  c-0.1,0.5-0.6,0.1-1,0.2l-1,0l0.4,0.8c-1.5,0.6-4.4,0.6-5-0.3c-0.7-1-1.5-0.6-2.4-0.6c-1.2,0-2.4,0.5-3.6,0.3  c-1.7-0.2-3.4-0.1-4.9-0.9l-1.1-0.1c-4.2,0.4-8.3-0.1-12.5-0.3c-1.1-0.1-2.2,0-3.3-0.1c-0.6-0.1-1.8-0.2-1.8-0.1  c-0.7,1.4-2.1,0.7-3.2,0.8c-2.5,0.1-5.1-0.8-7.6,0.1L990,16l-1-0.2c-2.4,0.7-4.7,0.2-6.9-0.3c-0.7-0.1-1.3-0.1-2-0.4  c-1.6-0.9-3.4-1.6-5.4-1.7c-2.5-0.1-5.1-0.1-7.6-0.2c-0.6,0-1,0.6-1.7,0.2c-1.1-0.5-2.3-0.4-3.5-0.4c-1.9-0.1-3.7,0.4-5.6,0.2  c-1.8-0.1-3.5-0.7-5.3-0.4l-0.7-0.4c-0.1-1.2-1.2-0.4-1.7-0.6c-0.7-0.3-0.6,0.4-0.8,0.7c-1.3-1-2.9-0.7-4.4-0.7  c-2.8,0.1-5.6-0.1-8.3,0.5c-1.9,0.4-4,0.5-6,0l-1.4,0.1c-1,0.5-2.2,0.6-3.3,0.8c-1.4,0.2-2.7,0.9-4.1,1.1c-1.5,0.2-2.9,0.5-4.4,0.5  c-1.8,0.1-3.5,0.7-5.3,0.7c-2.6-0.1-5.3-0.3-7.9,0.3c-0.6,0.1-1.2,0-1.7-0.2c-0.8-0.4-1.7-0.2-2.5-0.1c-1.3,0.1-2.5,0.4-3.8,0.4  c-3.2,0-6.3-1.1-9.5-0.2l-0.3,0c-2.7,0-5.3,0-8,0.3c-2,0.3-4,0.5-6,1.2c-0.9,0.3-2.3-0.1-2.9,0.9l-0.5,0c-2.2,0-4.5,0.1-6.7,0  c-1.3,0-2.5,0.6-3.9,0.1l-1,0.1c-0.3,0.6-0.8,0.3-1.3,0.2c-1.6-0.3-3.3-0.1-4.9-0.4c-0.7-0.1-1.6,0.3-2.4,0.2  c-0.8-0.1-2,0.1-2.4-0.2c-0.9-0.8-1.3,0.3-1.9,0.2l-0.9-0.6l-0.8-0.2c-0.5,0.7-1,0.3-1.4,0l-1.1-0.4c-3.4,0-6.8-0.2-10.2-0.1  c-2,0-4-0.5-6-0.1c-0.9,0.1-1.8,0.2-2.7,0.1c-1.7-0.1-3.4-0.2-5.1-0.4v4.1h0v-4.1c-1.7,0.1-3.4,0.3-5.1,0.4c-0.9,0-1.8,0-2.7-0.1  c-2-0.4-4,0.1-6,0.1c-3.4,0-6.8,0.1-10.2,0.1l-1.1,0.4c-0.4,0.3-0.9,0.7-1.4,0l-0.8,0.2l-0.9,0.6c-0.6,0.1-0.9-1-1.9-0.2  c-0.4,0.3-1.6,0.1-2.4,0.2c-0.8,0.1-1.7-0.3-2.4-0.2c-1.6,0.3-3.3,0.1-4.9,0.4c-0.5,0.1-1,0.4-1.3-0.2l-1-0.1  c-1.4,0.5-2.6-0.1-3.9-0.1c-2.2,0-4.5,0-6.7,0l-0.5,0c-0.7-1-2-0.6-2.9-0.9c-1.9-0.7-3.9-0.9-6-1.2c-2.6-0.3-5.3-0.3-8-0.3l-0.3,0  c-3.2-1-6.4,0.1-9.5,0.2c-1.3,0-2.5-0.3-3.8-0.4c-0.9-0.1-1.7-0.2-2.5,0.1c-0.6,0.3-1.2,0.4-1.7,0.2c-2.6-0.6-5.3-0.3-7.9-0.3  c-1.8,0-3.5-0.6-5.3-0.7c-1.4-0.1-2.9-0.4-4.4-0.5c-1.4-0.2-2.7-0.9-4.1-1.1c-1.1-0.2-2.3-0.3-3.3-0.8l-1.4-0.1c-2,0.5-4.1,0.4-6,0  c-2.8-0.6-5.6-0.4-8.3-0.5c-1.5-0.1-3.1-0.3-4.4,0.7c-0.2-0.3-0.1-1-0.8-0.7c-0.6,0.2-1.7-0.5-1.7,0.6l-0.7,0.4  c-1.8-0.2-3.6,0.3-5.3,0.4c-1.9,0.1-3.7-0.3-5.6-0.2c-1.2,0-2.4-0.1-3.5,0.4c-0.7,0.3-1.1-0.2-1.7-0.2c-2.5,0.1-5.1,0-7.6,0.2  c-2,0.1-3.8,0.9-5.4,1.7c-0.6,0.3-1.3,0.3-2,0.4c-2.3,0.4-4.6,1-6.9,0.3l-1,0.2l-1.1,0.2c-2.5-0.9-5-0.1-7.6-0.1  c-1.1,0-2.5,0.7-3.2-0.8c0,0-1.2,0.1-1.8,0.1c-1.1,0.2-2.2,0.1-3.3,0.1c-4.2,0.3-8.3,0.7-12.5,0.3l-1.1,0.1  c-1.5,0.8-3.3,0.7-4.9,0.9c-1.2,0.2-2.4-0.3-3.6-0.3c-0.9,0-1.7-0.4-2.4,0.6c-0.6,0.9-3.4,0.9-5,0.3l0.4-0.8l-1,0  c-0.4,0-0.9,0.3-1-0.2l0.7-0.5l0.9-0.7c-1.1-1.1-1.8,0.6-2.9,0.3l0.1-0.3l0.8-0.6l-1.3,0.1l-1.3,0.2c-1-1-2.3-0.5-3.5-0.6l-0.8,0.4  l-0.2,0.2c-1.3,0.1-2.5,0.2-3.4,1.2l-0.7-0.2l-0.8-0.2c-2,0.8-4.1,0.2-6-0.2c-1.9-0.4-3.4-0.1-5,0.5l-0.5,0.1  c-0.8-1-2.2-0.3-3.2-0.9l-1.4-0.2c-0.7,0-1.3,0.1-1.5-0.6l-0.8-0.3c-0.3-0.1-0.8,0.1-0.8-0.3l0.8-0.6l1.1-0.5  c-1.2,0.2-2.2-0.2-3.1,0.5l-0.5,0.1c-0.1-1.2-2.2-0.5-2-1.9c-0.8,0.8-1.9,1-2.7,1.3c-1.3,0.5-1.5,1.7-2.3,2.5c-1,0.9-2,0.8-2.9,0.7  c-1.5-0.2-2.7,0.4-3.2,1.1c-0.8,1-1.8,1.4-2.9,1.6c-1.6,0.3-3.5,0.1-4.9-0.7c-1.2-0.7-2.2-1-3.6-0.7c-1.3,0.3-2.5,0.6-3.8,0  c-0.4-0.2-1.5,0.1-2.1,0.3c-2.7,1.1-5.5,0.8-8.3,0.8c-1,0-1.8,0.2-2.6,0.7l-0.9,0.2l0.1-0.6l-0.7-0.6c-2.9-1.6-5.9-0.9-8.9-0.6  c-2.1,0.2-4.1,0.6-6.2,0.5c-1.7-0.1-3.5,0.3-5.1,1c-0.9,0.4-1.6,0.5-2.7,0.2c-1.3-0.4-2.7-0.7-3.9,0.4l-1.2,0.6  c-0.6,0.1-1.1,0.2-1.7,0.3h-16.5c-0.2-0.1-0.4-0.1-0.7-0.2c-2-0.7-4.3-0.3-6.4-0.9c-2.4-0.8-4.8,0-7.2-0.4c-1.5-0.3-3.1-0.2-4.4-1.1  l-0.8-0.1c-0.6,0.2-1,0-1.5-0.3c-0.8-0.5-1.2-0.3-1.2,0.5l-0.3,0.5c-1.4,0.6-2.7,1.5-4.1,2h-5c-1.7-0.4-3.5-0.4-5.3-0.1l-1.2-0.3  c-1.7-1.7-4.2-2-6.4-2.7c-1.6-0.5-3.3-0.7-5.1-0.3l-1.4,0.1c-1.8-0.3-3.5,0-5.2,0.2c-1.3,0.2-2.6,0.1-3.8-0.4c-0.5-0.2-1-0.3-1-1  c0-0.5-0.5-0.4-0.9-0.3c-2,0.5-4.1,0.5-6,1.3l-1.3,0l-1.5,0c-1.5,0.6-2.6-0.1-3.9-0.5c-1.6-0.6-3.4-0.9-5-0.4  c-2.1,0.7-4.1,0.8-6.3,0.5c-0.7-0.1-1.3-0.2-1.8,0.2l-0.3,0.1c-1.4-0.7-2.9,0.3-4.3,0c-0.7-0.2-1.4-0.1-2,0c-0.7,0-1.4,0.1-2-0.2  c-1-0.6-2.1-0.5-3.3-0.3c-10.8,1.7-12.8,2.3-21.5-3.4v3.4c-0.2-0.1-0.5,0-0.8,0.3c-0.5,0.5-1.1,0-1.7,0.1c-0.4,0.1-0.9-0.1-1.2,0.3  c0.1,0.5,0.8,0.1,0.9,0.5c-0.8,0.3-1.6-0.1-2-0.5l-1-0.1c-0.8,0.6-1.7,0.6-2.7,0.3c-1.7-0.5-3.5-0.1-5.2-0.3l-1-0.1  c-0.6-0.4-1.1-0.6-1.9-0.3c-0.1,0.1-1,0.2-0.7-0.5L331,16c-0.9,0.3-1.8-0.2-2.6,0.2c0-1.1,0-1.1-2.2-0.4l0.5-1.2  c-1.3-0.2-1.8,0.6-2.6,1.2c-0.9,0.7-2,1.5-3.5,1l-0.7-0.1c-1.2,1.1-2.9,0.8-4.4,1.3c-0.6,0.2-1.1-0.1-1.7-0.1  c-1.1,0.1-2.1-0.1-3,0.7c-0.4,0.3-1.3,0.9-1.6-0.2l-0.6-0.2c-1-0.1-1.9,0.1-2.9-0.1l-0.9,0.5c-0.5,0.5-0.8,1.1-1.9,0.4  c-0.5-0.4-1.1-0.1-1.4,0.5h-0.2c-0.1-0.3-0.5-0.2-0.9,0c0,0,0,0,0,0c-12,0-25.5,0-40.3,0.1c-1.1-0.4-2.6,0-3.4-1.2  c-0.3-0.4-1.1-0.5-1.7-0.6c-2.2-0.2-4.4-0.1-6.6-0.6c-0.7-0.1-1.3,0.4-1.9,0.2c-1.3-0.5-2.6-0.4-3.9-0.6c-0.7-0.1-1.4-0.2-2.2-0.1  c-1.9,0.2-3.8,0.1-5.8,0.7c-1,0.3-2.3,0.3-3.1-0.6l-1-0.4c0-0.8,1.3-0.4,1.5-1l-0.5-0.1c-2.2,1.5-4.5,0.8-6.6-0.1  c-1-0.4-1.9-0.2-2.7-0.5c-1.1-0.4-1.6,0.2-2.4,0.4c-1.8,0.4-3.8,0.7-5.6-0.3c-0.6-0.3-1,0.2-1.6,0.1c-1.6-0.1-3,0.3-4.4,0.9  c-1.5,0.6-3.2,0.8-4.8,0.7c-1.4-0.1-2.8,0.1-3.9,0.5c-1.7,0.7-3.2,0.3-4.7-0.3c-1.3-0.5-2.9-0.3-4.2-1.1c-0.1-0.1-1.5-0.5-1.1,0.7  l-0.8,0.4c-1.1-1.1-2.6-0.5-3.8-0.4c-1.8,0.3-3.6,0.1-5.3,0.2c-2.3,0.2-4.6,0.4-7,0.5c-0.9,0-1.8,0-2.7-0.1c-2-0.4-4,0.1-6,0.1  c-3.4,0-6.8,0.1-10.2,0.1l-1.1,0.4c-0.4,0.3-0.9,0.7-1.4,0l-0.8,0.2l-0.9,0.6c-0.6,0.1-0.9-1-1.9-0.2c-0.4,0.3-1.6,0.1-2.4,0.2  c-0.8,0.1-1.7-0.3-2.4-0.2c-1.6,0.3-3.3,0.1-4.9,0.4c-0.5,0.1-1,0.4-1.3-0.2l-1-0.1c-1.4,0.5-2.6-0.1-3.9-0.1c-2.2,0-4.5,0-6.7,0  l-0.5,0c-0.7-1-2-0.6-2.9-0.9c-1.9-0.7-3.9-0.9-5.9-1.2c-2.6-0.3-5.3-0.3-8-0.3l-0.3,0c-3.2-1-6.4,0.1-9.5,0.2  c-1.3,0-2.5-0.3-3.8-0.4c-0.9-0.1-1.7-0.2-2.5,0.1c-0.6,0.3-1.2,0.4-1.7,0.2c-2.6-0.6-5.3-0.3-7.9-0.3c-1.8,0-3.5-0.6-5.3-0.7  c-1.4-0.1-2.9-0.4-4.4-0.5c-1.4-0.2-2.7-0.9-4.1-1.1c-1.1-0.2-2.3-0.3-3.3-0.8l-1.4-0.1c-2,0.5-4.1,0.4-6,0  c-2.8-0.6-5.6-0.4-8.3-0.5c-1.5-0.1-3.1-0.3-4.4,0.7c-0.2-0.3-0.1-1-0.8-0.7c-0.6,0.2-1.7-0.5-1.7,0.6l-0.7,0.4  c-1.8-0.2-3.6,0.3-5.3,0.4c-1.9,0.1-3.7-0.3-5.6-0.2c-1.2,0-2.4-0.1-3.5,0.4c-0.7,0.3-1.1-0.2-1.7-0.2c-2.5,0.1-5.1,0-7.6,0.2  c-2,0.1-3.8,0.9-5.4,1.7c-0.6,0.3-1.3,0.3-2,0.4c-2.3,0.4-4.6,1-6.9,0.3l-1,0.2l-1.1,0.2C1.4,16.1,1.2,16,1,16v728.7h0v313h0v7.5  c8.6-5.6,10.7-5.1,21.5-3.4c1.2,0.2,2.3,0.3,3.3-0.3c0.6-0.4,1.3-0.3,2-0.2c0.7,0.1,1.4,0.2,2,0c1.4-0.3,2.9,0.7,4.3,0l0.3,0.1  c0.6,0.3,1.2,0.3,1.8,0.2c2.1-0.3,4.2-0.3,6.3,0.5c1.6,0.6,3.4,0.3,5-0.4c1.2-0.5,2.4-1.2,3.9-0.5l1.5,0l1.3,0c1.9,0.8,4,0.8,6,1.3  c0.4,0.1,0.9,0.2,0.9-0.3c0-0.7,0.5-0.8,1-1c1.2-0.5,2.5-0.6,3.8-0.4c1.7,0.3,3.4,0.6,5.2,0.2l1.4,0.1c1.7,0.4,3.4,0.1,5.1-0.3  c2.3-0.7,4.7-1,6.4-2.7l1.2-0.3c1.8,0.3,3.6,0.4,5.3-0.1h5c1.4,0.5,2.7,1.3,4.1,2l0.3,0.5c0,0.8,0.5,1,1.2,0.5  c0.5-0.3,0.9-0.5,1.5-0.3l0.8-0.1c1.3-0.9,2.9-0.8,4.4-1.1c2.4-0.4,4.8,0.4,7.2-0.4c2-0.7,4.3-0.2,6.4-0.9c0.2-0.1,0.4-0.1,0.7-0.2  h16.5c0.5,0.1,1.1,0.2,1.7,0.3l1.2,0.6c1.2,1.1,2.6,0.8,3.9,0.4c1-0.3,1.8-0.2,2.7,0.2c1.6,0.7,3.3,1.1,5.1,1  c2.1-0.1,4.2,0.3,6.2,0.5c3,0.3,6.1,0.9,8.9-0.6l0.7-0.6l-0.1-0.6l0.9,0.2c0.8,0.5,1.6,0.7,2.6,0.7c2.8,0,5.6-0.3,8.3,0.8  c0.6,0.2,1.7,0.5,2.1,0.3c1.4-0.6,2.6-0.3,3.8,0c1.3,0.3,2.4,0,3.6-0.7c1.4-0.8,3.2-1,4.9-0.7c1,0.2,2.1,0.7,2.9,1.6  c0.6,0.7,1.8,1.3,3.2,1.1c1-0.1,2-0.2,2.9,0.7c0.8,0.8,1,2,2.3,2.5c0.9,0.3,1.9,0.5,2.7,1.3c-0.2-1.5,1.9-0.8,2-1.9l0.5,0.1  c0.9,0.7,1.9,0.3,3.1,0.5l-1.1-0.5l-0.8-0.6c0-0.4,0.5-0.2,0.8-0.3l0.8-0.3c0.3-0.7,0.9-0.6,1.5-0.6l1.4-0.2c0.9-0.7,2.4,0,3.2-0.9  l0.5,0.1c1.6,0.5,3.1,0.9,5,0.5c1.9-0.4,4-0.9,6-0.2l0.8-0.2l0.7-0.2c0.9,1,2.1,1.1,3.4,1.2l0.2,0.2l0.8,0.4  c1.2-0.1,2.5,0.4,3.5-0.6l1.3,0.2l1.3,0.1l-0.8-0.6l-0.1-0.3c1.1-0.3,1.8,1.3,2.9,0.3l-0.9-0.7l-0.7-0.5c0.1-0.5,0.6-0.1,1-0.2l1,0  l-0.4-0.8c1.5-0.6,4.4-0.6,5,0.3c0.7,1,1.5,0.6,2.4,0.6c1.2,0,2.4-0.5,3.6-0.3c1.7,0.2,3.4,0.1,4.9,0.9l1.1,0.1  c4.2-0.4,8.3,0.1,12.5,0.3c1.1,0.1,2.2,0,3.3,0.1c0.6,0.1,1.8,0.2,1.8,0.1c0.7-1.4,2.1-0.7,3.2-0.8c2.5-0.1,5.1,0.8,7.6-0.1l1.1,0.2  l1,0.2c2.4-0.7,4.7-0.2,6.9,0.3c0.7,0.1,1.3,0.1,2,0.4c1.6,0.9,3.4,1.6,5.4,1.7c2.5,0.1,5.1,0.1,7.6,0.2c0.6,0,1-0.6,1.7-0.2  c1.1,0.5,2.3,0.4,3.5,0.4c1.9,0.1,3.7-0.4,5.6-0.2c1.8,0.1,3.5,0.7,5.3,0.4l0.7,0.4c0.1,1.2,1.2,0.4,1.7,0.6  c0.7,0.3,0.6-0.4,0.8-0.7c1.3,1,2.9,0.7,4.4,0.7c2.8-0.1,5.6,0.1,8.3-0.5c1.9-0.4,4-0.5,6,0l1.4-0.1c1-0.5,2.2-0.6,3.3-0.8  c1.4-0.2,2.7-0.9,4.1-1.1c1.5-0.2,2.9-0.5,4.4-0.5c1.8-0.1,3.5-0.7,5.3-0.7c2.6,0.1,5.3,0.3,7.9-0.3c0.6-0.1,1.2,0,1.7,0.2  c0.8,0.4,1.7,0.2,2.5,0.1c1.3-0.1,2.5-0.4,3.8-0.4c3.2,0,6.3,1.1,9.5,0.2l0.3,0c2.7,0,5.3,0,8-0.3c2-0.3,4-0.5,5.9-1.2  c0.9-0.3,2.3,0.1,2.9-0.9l0.5,0c2.2,0,4.5-0.1,6.7,0c1.3,0,2.5-0.6,3.9-0.1l1-0.1c0.3-0.6,0.8-0.3,1.3-0.2c1.6,0.3,3.3,0.1,4.9,0.4  c0.7,0.1,1.6-0.3,2.4-0.2c0.8,0.1,2-0.1,2.4,0.2c0.9,0.8,1.3-0.3,1.9-0.2l0.9,0.6l0.8,0.2c0.5-0.7,1-0.3,1.4,0l1.1,0.4  c3.4,0,6.8,0.2,10.2,0.1c2,0,4,0.5,6,0.1c0.9-0.1,1.8-0.2,2.7-0.1c2.3,0.1,4.6,0.4,7,0.5c1.8,0.1,3.5,0,5.3,0.2  c1.1,0.1,2.7,0.7,3.8-0.4l0.8,0.4c-0.3,1.2,1,0.8,1.1,0.7c1.3-0.8,2.8-0.6,4.2-1.1c1.5-0.6,2.9-1,4.7-0.3c1.1,0.5,2.5,0.6,3.9,0.5  c1.7-0.1,3.4,0.1,4.8,0.7c1.4,0.6,2.8,1,4.4,0.9c0.5,0,1,0.5,1.6,0.1c1.8-1,3.8-0.7,5.6-0.3c0.8,0.2,1.2,0.8,2.4,0.4  c0.8-0.3,1.7,0,2.7-0.5c2-0.9,4.4-1.6,6.6-0.1l0.5-0.1c-0.2-0.6-1.5-0.2-1.5-1l1-0.4c0.8-0.9,2.2-0.9,3.1-0.6  c1.9,0.6,3.8,0.5,5.8,0.7c0.7,0.1,1.4,0,2.2-0.1c1.3-0.2,2.7-0.1,3.9-0.6c0.6-0.2,1.2,0.3,1.9,0.2c2.1-0.5,4.4-0.4,6.6-0.6  c0.7,0,1.4-0.1,1.7-0.6c0.8-1.1,2.3-0.8,3.4-1.2c14.8,0,28.3,0.1,40.3,0.1c0,0,0,0,0,0c0.4,0.2,0.8,0.3,0.9,0h0.2  c0.4,0.5,0.9,0.8,1.4,0.5c1-0.7,1.4-0.1,1.9,0.4l0.9,0.5c1-0.2,1.9,0,2.9-0.1l0.6-0.2c0.3-1.1,1.2-0.5,1.6-0.2  c0.9,0.8,1.9,0.6,3,0.7c0.6,0.1,1.1-0.3,1.7-0.1c1.5,0.5,3.2,0.2,4.4,1.3l0.7-0.1c1.5-0.5,2.6,0.4,3.5,1c0.8,0.6,1.3,1.4,2.6,1.2  l-0.5-1.2c2.2,0.8,2.2,0.8,2.2-0.4c0.9,0.4,1.8-0.1,2.6,0.2l0.3-0.2c-0.3-0.7,0.6-0.6,0.7-0.5c0.8,0.4,1.3,0.1,1.9-0.3l1-0.1  c1.7-0.3,3.5,0.2,5.2-0.3c1-0.3,1.9-0.3,2.7,0.3l1-0.1c0.4-0.4,1.1-0.8,2-0.5c-0.2,0.5-0.8,0.1-0.9,0.5c0.3,0.5,0.8,0.2,1.2,0.3  c0.6,0.1,1.2-0.3,1.7,0.1c0.3,0.3,0.6,0.4,0.8,0.3v3.4c8.6-5.6,10.7-5.1,21.5-3.4c1.2,0.2,2.3,0.3,3.3-0.3c0.6-0.4,1.3-0.3,2-0.2  c0.7,0.1,1.4,0.2,2,0c1.4-0.3,2.9,0.7,4.3,0l0.3,0.1c0.6,0.3,1.2,0.3,1.8,0.2c2.1-0.3,4.2-0.3,6.3,0.5c1.6,0.6,3.4,0.3,5-0.4  c1.2-0.5,2.4-1.2,3.9-0.5l1.5,0l1.3,0c1.9,0.8,4,0.8,6,1.3c0.4,0.1,0.9,0.2,0.9-0.3c0-0.7,0.5-0.8,1-1c1.2-0.5,2.5-0.6,3.8-0.4  c1.7,0.3,3.4,0.6,5.2,0.2l1.4,0.1c1.7,0.4,3.4,0.1,5.1-0.3c2.3-0.7,4.7-1,6.4-2.7l1.2-0.3c1.8,0.3,3.6,0.4,5.3-0.1h5  c1.4,0.5,2.7,1.3,4.1,2l0.3,0.5c0,0.8,0.5,1,1.2,0.5c0.5-0.3,0.9-0.5,1.5-0.3l0.8-0.1c1.3-0.9,2.9-0.8,4.4-1.1  c2.4-0.4,4.8,0.4,7.2-0.4c2-0.7,4.3-0.2,6.4-0.9c0.2-0.1,0.4-0.1,0.7-0.2h16.5c0.5,0.1,1.1,0.2,1.7,0.3l1.2,0.6  c1.2,1.1,2.6,0.8,3.9,0.4c1-0.3,1.8-0.2,2.7,0.2c1.6,0.7,3.3,1.1,5.1,1c2.1-0.1,4.2,0.3,6.2,0.5c3,0.3,6.1,0.9,8.9-0.6l0.7-0.6  l-0.1-0.6l0.9,0.2c0.8,0.5,1.6,0.7,2.6,0.7c2.8,0,5.6-0.3,8.3,0.8c0.6,0.2,1.7,0.5,2.1,0.3c1.4-0.6,2.6-0.3,3.8,0  c1.3,0.3,2.4,0,3.6-0.7c1.4-0.8,3.2-1,4.9-0.7c1,0.2,2.1,0.7,2.9,1.6c0.6,0.7,1.8,1.3,3.2,1.1c1-0.1,2-0.2,2.9,0.7  c0.8,0.8,1,2,2.3,2.5c0.9,0.3,1.9,0.5,2.7,1.3c-0.2-1.5,1.9-0.8,2-1.9l0.5,0.1c0.9,0.7,1.9,0.3,3.1,0.5l-1.1-0.5l-0.8-0.6  c0-0.4,0.5-0.2,0.8-0.3l0.8-0.3c0.3-0.7,0.9-0.6,1.5-0.6l1.4-0.2c0.9-0.7,2.4,0,3.2-0.9l0.5,0.1c1.6,0.5,3.1,0.9,5,0.5  c1.9-0.4,4-0.9,6-0.2l0.8-0.2l0.7-0.2c0.9,1,2.1,1.1,3.4,1.2l0.2,0.2l0.8,0.4c1.2-0.1,2.5,0.4,3.5-0.6l1.3,0.2l1.3,0.1l-0.8-0.6  l-0.1-0.3c1.1-0.3,1.8,1.3,2.9,0.3l-0.9-0.7l-0.7-0.5c0.1-0.5,0.6-0.1,1-0.2l1,0l-0.4-0.8c1.5-0.6,4.4-0.6,5,0.3  c0.7,1,1.5,0.6,2.4,0.6c1.2,0,2.4-0.5,3.6-0.3c1.7,0.2,3.4,0.1,4.9,0.9l1.1,0.1c4.2-0.4,8.3,0.1,12.5,0.3c1.1,0.1,2.2,0,3.3,0.1  c0.6,0.1,1.8,0.2,1.8,0.1c0.7-1.4,2.1-0.7,3.2-0.8c2.5-0.1,5.1,0.8,7.6-0.1l1.1,0.2l1,0.2c2.4-0.7,4.7-0.2,6.9,0.3  c0.7,0.1,1.3,0.1,2,0.4c1.6,0.9,3.4,1.6,5.4,1.7c2.5,0.1,5.1,0.1,7.6,0.2c0.6,0,1-0.6,1.7-0.2c1.1,0.5,2.3,0.4,3.5,0.4  c1.9,0.1,3.7-0.4,5.6-0.2c1.8,0.1,3.5,0.7,5.3,0.4l0.7,0.4c0.1,1.2,1.2,0.4,1.7,0.6c0.7,0.3,0.6-0.4,0.8-0.7c1.3,1,2.9,0.7,4.4,0.7  c2.8-0.1,5.6,0.1,8.3-0.5c1.9-0.4,4-0.5,6,0l1.4-0.1c1-0.5,2.2-0.6,3.3-0.8c1.4-0.2,2.7-0.9,4.1-1.1c1.5-0.2,2.9-0.5,4.4-0.5  c1.8-0.1,3.5-0.7,5.3-0.7c2.6,0.1,5.3,0.3,7.9-0.3c0.6-0.1,1.2,0,1.7,0.2c0.8,0.4,1.7,0.2,2.5,0.1c1.3-0.1,2.5-0.4,3.8-0.4  c3.2,0,6.3,1.1,9.5,0.2l0.3,0c2.7,0,5.3,0,8-0.3c2-0.3,4-0.5,6-1.2c0.9-0.3,2.3,0.1,2.9-0.9l0.5,0c2.2,0,4.5-0.1,6.7,0  c1.3,0,2.5-0.6,3.9-0.1l1-0.1c0.3-0.6,0.8-0.3,1.3-0.2c1.6,0.3,3.3,0.1,4.9,0.4c0.7,0.1,1.6-0.3,2.4-0.2c0.8,0.1,2-0.1,2.4,0.2  c0.9,0.8,1.3-0.3,1.9-0.2l0.9,0.6l0.8,0.2c0.5-0.7,1-0.3,1.4,0l1.1,0.4c3.4,0,6.8,0.2,10.2,0.1c2,0,4,0.5,6,0.1  c0.9-0.1,1.8-0.2,2.7-0.1c1.7,0.1,3.4,0.2,5.1,0.4v-4.1h0v4.1c1.7-0.1,3.4-0.3,5.1-0.4c0.9,0,1.8,0,2.7,0.1c2,0.4,4-0.1,6-0.1  c3.4,0,6.8-0.1,10.2-0.1l1.1-0.4c0.4-0.3,0.9-0.7,1.4,0l0.8-0.2l0.9-0.6c0.6-0.1,0.9,1,1.9,0.2c0.4-0.3,1.6-0.1,2.4-0.2  c0.8-0.1,1.7,0.3,2.4,0.2c1.6-0.3,3.3-0.1,4.9-0.4c0.5-0.1,1-0.4,1.3,0.2l1,0.1c1.4-0.5,2.6,0.1,3.9,0.1c2.2,0,4.5,0,6.7,0l0.5,0  c0.7,1,2,0.6,2.9,0.9c1.9,0.7,3.9,0.9,6,1.2c2.6,0.3,5.3,0.3,8,0.3l0.3,0c3.2,1,6.4-0.1,9.5-0.2c1.3,0,2.5,0.3,3.8,0.4  c0.9,0.1,1.7,0.2,2.5-0.1c0.6-0.3,1.2-0.4,1.7-0.2c2.6,0.6,5.3,0.3,7.9,0.3c1.8,0,3.5,0.6,5.3,0.7c1.4,0.1,2.9,0.4,4.4,0.5  c1.4,0.2,2.7,0.9,4.1,1.1c1.1,0.2,2.3,0.3,3.3,0.8l1.4,0.1c2-0.5,4.1-0.4,6,0c2.8,0.6,5.6,0.4,8.3,0.5c1.5,0.1,3.1,0.3,4.4-0.7  c0.2,0.3,0.1,1,0.8,0.7c0.6-0.2,1.7,0.5,1.7-0.6l0.7-0.4c1.8,0.2,3.6-0.3,5.3-0.4c1.9-0.1,3.7,0.3,5.6,0.2c1.2,0,2.4,0.1,3.5-0.4  c0.7-0.3,1.1,0.2,1.7,0.2c2.5-0.1,5.1,0,7.6-0.2c2-0.1,3.8-0.9,5.4-1.7c0.6-0.3,1.3-0.3,2-0.4c2.3-0.4,4.6-1,6.9-0.3l1-0.2l1.1-0.2  c2.5,0.9,5,0.1,7.6,0.1c1.1,0,2.5-0.7,3.2,0.8c0,0,1.2-0.1,1.8-0.1c1.1-0.2,2.2-0.1,3.3-0.1c4.2-0.3,8.3-0.7,12.5-0.3l1.1-0.1  c1.5-0.8,3.3-0.7,4.9-0.9c1.2-0.2,2.4,0.3,3.6,0.3c0.9,0,1.7,0.4,2.4-0.6c0.6-0.9,3.4-0.9,5-0.3l-0.4,0.8l1,0c0.4,0,0.9-0.3,1,0.2  l-0.7,0.5l-0.9,0.7c1.1,1.1,1.8-0.6,2.9-0.3l-0.1,0.3l-0.8,0.6l1.3-0.1l1.3-0.2c1,1,2.3,0.5,3.5,0.6l0.8-0.4l0.2-0.2  c1.3-0.1,2.5-0.2,3.4-1.2l0.7,0.2l0.8,0.2c2-0.8,4.1-0.2,6,0.2c1.9,0.4,3.4,0.1,5-0.5l0.5-0.1c0.8,1,2.2,0.3,3.2,0.9l1.4,0.2  c0.7,0,1.3-0.1,1.5,0.6l0.8,0.3c0.3,0.1,0.8-0.1,0.8,0.3l-0.8,0.6l-1.1,0.5c1.2-0.2,2.2,0.2,3.1-0.5l0.5-0.1c0.1,1.2,2.2,0.5,2,1.9  c0.8-0.8,1.9-1,2.7-1.3c1.3-0.5,1.5-1.7,2.3-2.5c1-0.9,2-0.8,2.9-0.7c1.5,0.2,2.7-0.4,3.2-1.1c0.8-1,1.8-1.4,2.9-1.6  c1.6-0.3,3.5-0.1,4.9,0.7c1.2,0.7,2.2,1,3.6,0.7c1.3-0.3,2.5-0.6,3.8,0c0.4,0.2,1.5-0.1,2.1-0.3c2.7-1.1,5.5-0.8,8.3-0.8  c1,0,1.8-0.2,2.6-0.7l0.9-0.2l-0.1,0.6l0.7,0.6c2.9,1.6,5.9,0.9,8.9,0.6c2.1-0.2,4.1-0.6,6.2-0.5c1.7,0.1,3.5-0.3,5.1-1  c0.9-0.4,1.6-0.5,2.7-0.2c1.3,0.4,2.7,0.7,3.9-0.4l1.2-0.6c0.6-0.1,1.1-0.2,1.7-0.3h16.5c0.2,0.1,0.4,0.1,0.7,0.2  c2,0.7,4.3,0.3,6.4,0.9c2.4,0.8,4.8,0,7.2,0.4c1.5,0.3,3.1,0.2,4.4,1.1l0.8,0.1c0.6-0.2,1,0,1.5,0.3c0.8,0.5,1.2,0.3,1.2-0.5  l0.3-0.5c1.4-0.6,2.7-1.5,4.1-2h5c1.7,0.4,3.5,0.4,5.3,0.1l1.2,0.3c1.7,1.7,4.2,2,6.4,2.7c1.6,0.5,3.3,0.7,5.1,0.3l1.4-0.1  c1.8,0.3,3.5,0,5.2-0.2c1.3-0.2,2.6-0.1,3.8,0.4c0.5,0.2,1,0.3,1,1c0,0.5,0.5,0.4,0.9,0.3c2-0.5,4.1-0.5,5.9-1.3l1.3,0l1.5,0  c1.5-0.6,2.6,0.1,3.9,0.5c1.6,0.6,3.4,0.9,5,0.4c2.1-0.7,4.1-0.8,6.3-0.5c0.7,0.1,1.3,0.2,1.8-0.2l0.3-0.1c1.4,0.7,2.9-0.3,4.3,0  c0.7,0.2,1.4,0.1,2,0c0.7,0,1.4-0.1,2,0.2c1,0.6,2.1,0.5,3.3,0.3c10.8-1.7,12.8-2.3,21.5,3.4v-3.4c0.2,0.1,0.5,0,0.8-0.3  c0.5-0.5,1.1,0,1.7-0.1c0.4-0.1,0.9,0.1,1.2-0.3c-0.1-0.5-0.8-0.1-0.9-0.5c0.8-0.3,1.6,0.1,2,0.5l1,0.1c0.8-0.6,1.7-0.6,2.7-0.3  c1.7,0.5,3.5,0.1,5.2,0.3l1,0.1c0.6,0.4,1.1,0.6,1.9,0.3c0.1-0.1,1-0.2,0.7,0.5l0.3,0.2c0.9-0.3,1.8,0.2,2.6-0.2  c0,1.1,0,1.1,2.2,0.4l-0.5,1.2c1.3,0.2,1.8-0.6,2.6-1.2c0.9-0.7,2-1.5,3.5-1l0.7,0.1c1.2-1.1,2.9-0.8,4.4-1.3  c0.6-0.2,1.1,0.1,1.7,0.1c1.1-0.1,2.1,0.1,3-0.7c0.4-0.3,1.3-0.9,1.6,0.2l0.6,0.2c1,0.1,1.9-0.1,2.9,0.1l0.9-0.5  c0.5-0.5,0.8-1.1,1.9-0.4c0.5,0.4,1.1,0.1,1.4-0.5h0.2c0.1,0.3,0.5,0.2,0.9,0c0,0,0,0,0,0c12,0,25.5,0,40.3-0.1  c1.1,0.4,2.6,0,3.4,1.2c0.3,0.4,1.1,0.5,1.7,0.6c2.2,0.2,4.4,0.1,6.6,0.6c0.7,0.1,1.3-0.4,1.9-0.2c1.3,0.5,2.6,0.4,3.9,0.6  c0.7,0.1,1.4,0.2,2.2,0.1c1.9-0.2,3.8-0.1,5.8-0.7c1-0.3,2.3-0.3,3.1,0.6l1,0.4c0,0.8-1.3,0.4-1.5,1l0.5,0.1  c2.2-1.5,4.5-0.8,6.6,0.1c1,0.4,1.9,0.2,2.7,0.5c1.1,0.4,1.6-0.2,2.4-0.4c1.8-0.4,3.8-0.7,5.6,0.3c0.6,0.3,1-0.2,1.6-0.1  c1.6,0.1,3-0.3,4.4-0.9c1.5-0.6,3.2-0.8,4.8-0.7c1.4,0.1,2.8-0.1,3.9-0.5c1.7-0.7,3.2-0.3,4.7,0.3c1.3,0.5,2.9,0.3,4.2,1.1  c0.1,0.1,1.5,0.5,1.1-0.7l0.8-0.4c1.1,1.1,2.6,0.5,3.8,0.4c1.8-0.2,3.6-0.1,5.3-0.2c2.3-0.2,4.6-0.4,7-0.5c0.9,0,1.8,0,2.7,0.1  c2,0.4,4-0.1,6-0.1c3.4,0,6.8-0.1,10.2-0.1l1.1-0.4c0.4-0.3,0.9-0.7,1.4,0l0.8-0.2l0.9-0.6c0.6-0.1,0.9,1,1.9,0.2  c0.4-0.3,1.6-0.1,2.4-0.2c0.8-0.1,1.7,0.3,2.4,0.2c1.6-0.3,3.3-0.1,4.9-0.4c0.5-0.1,1-0.4,1.3,0.2l1,0.1c1.4-0.5,2.6,0.1,3.9,0.1  c2.2,0,4.5,0,6.7,0l0.5,0c0.7,1,2,0.6,2.9,0.9c1.9,0.7,3.9,0.9,5.9,1.2c2.6,0.3,5.3,0.3,8,0.3l0.3,0c3.2,1,6.4-0.1,9.5-0.2  c1.3,0,2.5,0.3,3.8,0.4c0.9,0.1,1.7,0.2,2.5-0.1c0.6-0.3,1.2-0.4,1.7-0.2c2.6,0.6,5.3,0.3,7.9,0.3c1.8,0,3.5,0.6,5.3,0.7  c1.4,0.1,2.9,0.4,4.4,0.5c1.4,0.2,2.7,0.9,4.1,1.1c1.1,0.2,2.3,0.3,3.3,0.8l1.4,0.1c2-0.5,4.1-0.4,6,0c2.8,0.6,5.6,0.4,8.3,0.5  c1.5,0.1,3.1,0.3,4.4-0.7c0.2,0.3,0.1,1,0.8,0.7c0.6-0.2,1.7,0.5,1.7-0.6l0.7-0.4c1.8,0.2,3.6-0.3,5.3-0.4c1.9-0.1,3.7,0.3,5.6,0.2  c1.2,0,2.4,0.1,3.5-0.4c0.7-0.3,1.1,0.2,1.7,0.2c2.5-0.1,5.1,0,7.6-0.2c2-0.1,3.8-0.9,5.4-1.7c0.6-0.3,1.3-0.3,2-0.4  c2.3-0.4,4.6-1,6.9-0.3l1-0.2l1.1-0.2c0.2,0.1,0.4,0.1,0.6,0.2V333.6h0L1918.6,20.6L1918.6,20.6z"/>
</svg>